<?xml version="1.0" encoding="UTF-8"?>
<!--Generator: Apple Native CoreSVG 175-->
<!DOCTYPE svg
PUBLIC "-//W3C//DTD SVG 1.1//EN"
       "http://www.w3.org/Graphics/SVG/1.1/DTD/svg11.dtd">
<svg version="1.1" xmlns="http://www.w3.org/2000/svg" xmlns:xlink="http://www.w3.org/1999/xlink" width="3300" height="2200">
 <!--glyph: "uni1010EA.medium", point size: 100.0, font version: "17.0d12e1", template writer version: "65.1"-->
 <style>.multicolor-0:systemRedColor {fill:#FF3B30;opacity:1.0}

.hierarchical-0:secondary {fill:#4D4D4D}
.hierarchical-1:primary {fill:#212121}

.SFSymbolsPreviewFF3B30 {fill:#FF3B30;opacity:1.0}
</style>
 <g id="Notes">
  <rect height="2200" id="artboard" style="fill:white;opacity:1" width="3300" x="0" y="0"/>
  <line style="fill:none;stroke:black;opacity:1;stroke-width:0.5;" x1="263" x2="3036" y1="292" y2="292"/>
  <text style="stroke:none;fill:black;font-family:sans-serif;font-size:13;font-weight:bold;" transform="matrix(1 0 0 1 263 322)">Weight/Scale Variations</text>
  <text style="stroke:none;fill:black;font-family:sans-serif;font-size:13;text-anchor:middle;" transform="matrix(1 0 0 1 559.711 322)">Ultralight</text>
  <text style="stroke:none;fill:black;font-family:sans-serif;font-size:13;text-anchor:middle;" transform="matrix(1 0 0 1 856.422 322)">Thin</text>
  <text style="stroke:none;fill:black;font-family:sans-serif;font-size:13;text-anchor:middle;" transform="matrix(1 0 0 1 1153.13 322)">Light</text>
  <text style="stroke:none;fill:black;font-family:sans-serif;font-size:13;text-anchor:middle;" transform="matrix(1 0 0 1 1449.84 322)">Regular</text>
  <text style="stroke:none;fill:black;font-family:sans-serif;font-size:13;text-anchor:middle;" transform="matrix(1 0 0 1 1746.56 322)">Medium</text>
  <text style="stroke:none;fill:black;font-family:sans-serif;font-size:13;text-anchor:middle;" transform="matrix(1 0 0 1 2043.27 322)">Semibold</text>
  <text style="stroke:none;fill:black;font-family:sans-serif;font-size:13;text-anchor:middle;" transform="matrix(1 0 0 1 2339.98 322)">Bold</text>
  <text style="stroke:none;fill:black;font-family:sans-serif;font-size:13;text-anchor:middle;" transform="matrix(1 0 0 1 2636.69 322)">Heavy</text>
  <text style="stroke:none;fill:black;font-family:sans-serif;font-size:13;text-anchor:middle;" transform="matrix(1 0 0 1 2933.4 322)">Black</text>
  <line style="fill:none;stroke:black;opacity:1;stroke-width:0.5;" x1="263" x2="3036" y1="1903" y2="1903"/>
  <g transform="matrix(1 0 0 1 263 1933)">
   <path d="M9.24805 0.830078Q10.8691 0.830078 12.2949 0.214844Q13.7207-0.400391 14.8096-1.49414Q15.8984-2.58789 16.5186-4.01367Q17.1387-5.43945 17.1387-7.05078Q17.1387-8.66211 16.5186-10.0879Q15.8984-11.5137 14.8047-12.6074Q13.7109-13.7012 12.2852-14.3164Q10.8594-14.9316 9.23828-14.9316Q7.62695-14.9316 6.20117-14.3164Q4.77539-13.7012 3.69141-12.6074Q2.60742-11.5137 1.9873-10.0879Q1.36719-8.66211 1.36719-7.05078Q1.36719-5.43945 1.9873-4.01367Q2.60742-2.58789 3.69629-1.49414Q4.78516-0.400391 6.21094 0.214844Q7.63672 0.830078 9.24805 0.830078ZM9.24805-0.654297Q7.91992-0.654297 6.7627-1.14746Q5.60547-1.64062 4.73145-2.51953Q3.85742-3.39844 3.36426-4.56055Q2.87109-5.72266 2.87109-7.05078Q2.87109-8.37891 3.35938-9.54102Q3.84766-10.7031 4.72168-11.582Q5.5957-12.4609 6.75293-12.9541Q7.91016-13.4473 9.23828-13.4473Q10.5762-13.4473 11.7334-12.9541Q12.8906-12.4609 13.7695-11.582Q14.6484-10.7031 15.1465-9.54102Q15.6445-8.37891 15.6445-7.05078Q15.6445-5.72266 15.1514-4.56055Q14.6582-3.39844 13.7842-2.51953Q12.9102-1.64062 11.748-1.14746Q10.5859-0.654297 9.24805-0.654297ZM5.6543-7.05078Q5.6543-6.72852 5.85938-6.52832Q6.06445-6.32812 6.40625-6.32812L8.51562-6.32812L8.51562-4.20898Q8.51562-3.88672 8.71094-3.67676Q8.90625-3.4668 9.23828-3.4668Q9.56055-3.4668 9.77051-3.67676Q9.98047-3.88672 9.98047-4.20898L9.98047-6.32812L12.0898-6.32812Q12.4219-6.32812 12.627-6.52832Q12.832-6.72852 12.832-7.05078Q12.832-7.38281 12.627-7.58789Q12.4219-7.79297 12.0898-7.79297L9.98047-7.79297L9.98047-9.90234Q9.98047-10.2344 9.77051-10.4443Q9.56055-10.6543 9.23828-10.6543Q8.90625-10.6543 8.71094-10.4443Q8.51562-10.2344 8.51562-9.90234L8.51562-7.79297L6.40625-7.79297Q6.06445-7.79297 5.85938-7.58789Q5.6543-7.38281 5.6543-7.05078Z"/>
  </g>
  <g transform="matrix(1 0 0 1 281.867 1933)">
   <path d="M11.709 2.91016Q13.75 2.91016 15.5518 2.12891Q17.3535 1.34766 18.7305-0.0292969Q20.1074-1.40625 20.8887-3.20801Q21.6699-5.00977 21.6699-7.05078Q21.6699-9.0918 20.8887-10.8936Q20.1074-12.6953 18.7305-14.0723Q17.3535-15.4492 15.5469-16.2305Q13.7402-17.0117 11.6992-17.0117Q9.6582-17.0117 7.85645-16.2305Q6.05469-15.4492 4.68262-14.0723Q3.31055-12.6953 2.5293-10.8936Q1.74805-9.0918 1.74805-7.05078Q1.74805-5.00977 2.5293-3.20801Q3.31055-1.40625 4.6875-0.0292969Q6.06445 1.34766 7.86621 2.12891Q9.66797 2.91016 11.709 2.91016ZM11.709 1.25Q9.98047 1.25 8.47656 0.605469Q6.97266-0.0390625 5.83496-1.17676Q4.69727-2.31445 4.05762-3.81836Q3.41797-5.32227 3.41797-7.05078Q3.41797-8.7793 4.05762-10.2832Q4.69727-11.7871 5.83008-12.9297Q6.96289-14.0723 8.4668-14.7119Q9.9707-15.3516 11.6992-15.3516Q13.4277-15.3516 14.9316-14.7119Q16.4355-14.0723 17.5781-12.9297Q18.7207-11.7871 19.3652-10.2832Q20.0098-8.7793 20.0098-7.05078Q20.0098-5.32227 19.3701-3.81836Q18.7305-2.31445 17.5928-1.17676Q16.4551-0.0390625 14.9463 0.605469Q13.4375 1.25 11.709 1.25ZM7.17773-7.05078Q7.17773-6.69922 7.41211-6.47461Q7.64648-6.25 8.01758-6.25L10.8887-6.25L10.8887-3.36914Q10.8887-2.99805 11.1133-2.76855Q11.3379-2.53906 11.6895-2.53906Q12.0605-2.53906 12.29-2.76855Q12.5195-2.99805 12.5195-3.36914L12.5195-6.25L15.4004-6.25Q15.7715-6.25 16.001-6.47461Q16.2305-6.69922 16.2305-7.05078Q16.2305-7.42188 16.001-7.65137Q15.7715-7.88086 15.4004-7.88086L12.5195-7.88086L12.5195-10.752Q12.5195-11.1328 12.29-11.3623Q12.0605-11.5918 11.6895-11.5918Q11.3379-11.5918 11.1133-11.3574Q10.8887-11.123 10.8887-10.752L10.8887-7.88086L8.01758-7.88086Q7.63672-7.88086 7.40723-7.65137Q7.17773-7.42188 7.17773-7.05078Z"/>
  </g>
  <g transform="matrix(1 0 0 1 305.646 1933)">
   <path d="M14.9707 5.66406Q17.0605 5.66406 18.96 5.01465Q20.8594 4.36523 22.4512 3.19336Q24.043 2.02148 25.2197 0.429688Q26.3965-1.16211 27.0459-3.06641Q27.6953-4.9707 27.6953-7.05078Q27.6953-9.14062 27.0459-11.04Q26.3965-12.9395 25.2197-14.5312Q24.043-16.123 22.4512-17.2998Q20.8594-18.4766 18.9551-19.126Q17.0508-19.7754 14.9609-19.7754Q12.8711-19.7754 10.9717-19.126Q9.07227-18.4766 7.48535-17.2998Q5.89844-16.123 4.72168-14.5312Q3.54492-12.9395 2.90039-11.04Q2.25586-9.14062 2.25586-7.05078Q2.25586-4.9707 2.90527-3.06641Q3.55469-1.16211 4.72656 0.429688Q5.89844 2.02148 7.49023 3.19336Q9.08203 4.36523 10.9814 5.01465Q12.8809 5.66406 14.9707 5.66406ZM14.9707 3.84766Q13.1641 3.84766 11.5283 3.2959Q9.89258 2.74414 8.53516 1.74805Q7.17773 0.751953 6.17676-0.610352Q5.17578-1.97266 4.62891-3.6084Q4.08203-5.24414 4.08203-7.05078Q4.08203-8.86719 4.62891-10.5029Q5.17578-12.1387 6.17188-13.501Q7.16797-14.8633 8.52539-15.8594Q9.88281-16.8555 11.5186-17.4023Q13.1543-17.9492 14.9609-17.9492Q16.7773-17.9492 18.4131-17.4023Q20.0488-16.8555 21.4111-15.8594Q22.7734-14.8633 23.7695-13.501Q24.7656-12.1387 25.3174-10.5029Q25.8691-8.86719 25.8691-7.05078Q25.8789-5.24414 25.332-3.6084Q24.7852-1.97266 23.7842-0.610352Q22.7832 0.751953 21.4209 1.74805Q20.0586 2.74414 18.4229 3.2959Q16.7871 3.84766 14.9707 3.84766ZM9.19922-7.05078Q9.19922-6.66992 9.45801-6.4209Q9.7168-6.17188 10.1172-6.17188L14.0625-6.17188L14.0625-2.2168Q14.0625-1.81641 14.3115-1.55762Q14.5605-1.29883 14.9512-1.29883Q15.3516-1.29883 15.6104-1.55273Q15.8691-1.80664 15.8691-2.2168L15.8691-6.17188L19.8242-6.17188Q20.2246-6.17188 20.4785-6.4209Q20.7324-6.66992 20.7324-7.05078Q20.7324-7.46094 20.4785-7.71484Q20.2246-7.96875 19.8242-7.96875L15.8691-7.96875L15.8691-11.9141Q15.8691-12.3242 15.6104-12.583Q15.3516-12.8418 14.9512-12.8418Q14.5605-12.8418 14.3115-12.583Q14.0625-12.3242 14.0625-11.9141L14.0625-7.96875L10.1172-7.96875Q9.70703-7.96875 9.45312-7.71484Q9.19922-7.46094 9.19922-7.05078Z"/>
  </g>
  <text style="stroke:none;fill:black;font-family:sans-serif;font-size:13;font-weight:bold;" transform="matrix(1 0 0 1 263 1953)">Design Variations</text>
  <text style="stroke:none;fill:black;font-family:sans-serif;font-size:13;" transform="matrix(1 0 0 1 263 1971)">Symbols are supported in up to nine weights and three scales.</text>
  <text style="stroke:none;fill:black;font-family:sans-serif;font-size:13;" transform="matrix(1 0 0 1 263 1989)">For optimal layout with text and other symbols, vertically align</text>
  <text style="stroke:none;fill:black;font-family:sans-serif;font-size:13;" transform="matrix(1 0 0 1 263 2007)">symbols with the adjacent text.</text>
  <line style="fill:none;stroke:#00AEEF;stroke-width:0.5;opacity:1.0;" x1="776" x2="776" y1="1919" y2="1933"/>
  <g transform="matrix(1 0 0 1 776 1933)">
   <path d="M3.31055 0.15625Q3.70117 0.15625 3.91602-0.00976562Q4.13086-0.175781 4.26758-0.585938L5.52734-4.0332L11.2891-4.0332L12.5488-0.585938Q12.6855-0.175781 12.9004-0.00976562Q13.1152 0.15625 13.4961 0.15625Q13.8867 0.15625 14.1162-0.0585938Q14.3457-0.273438 14.3457-0.644531Q14.3457-0.869141 14.2383-1.17188L9.6582-13.3691Q9.48242-13.8184 9.17969-14.043Q8.87695-14.2676 8.4082-14.2676Q7.5-14.2676 7.17773-13.3789L2.59766-1.16211Q2.49023-0.859375 2.49023-0.634766Q2.49023-0.263672 2.70996-0.0537109Q2.92969 0.15625 3.31055 0.15625ZM6.00586-5.51758L8.37891-12.0898L8.42773-12.0898L10.8008-5.51758Z"/>
  </g>
  <line style="fill:none;stroke:#00AEEF;stroke-width:0.5;opacity:1.0;" x1="793.197" x2="793.197" y1="1919" y2="1933"/>
  <text style="stroke:none;fill:black;font-family:sans-serif;font-size:13;font-weight:bold;" transform="matrix(1 0 0 1 776 1953)">Margins</text>
  <text style="stroke:none;fill:black;font-family:sans-serif;font-size:13;" transform="matrix(1 0 0 1 776 1971)">Leading and trailing margins on the left and right side of each symbol</text>
  <text style="stroke:none;fill:black;font-family:sans-serif;font-size:13;" transform="matrix(1 0 0 1 776 1989)">can be adjusted by modifying the x-location of the margin guidelines.</text>
  <text style="stroke:none;fill:black;font-family:sans-serif;font-size:13;" transform="matrix(1 0 0 1 776 2007)">Modifications are automatically applied proportionally to all</text>
  <text style="stroke:none;fill:black;font-family:sans-serif;font-size:13;" transform="matrix(1 0 0 1 776 2025)">scales and weights.</text>
  <g transform="matrix(1 0 0 1 1289 1933)">
   <path d="M2.8418 1.86523L4.54102 3.57422Q5.18555 4.22852 5.90332 4.17969Q6.62109 4.13086 7.31445 3.35938L18.0078-8.42773L17.041-9.4043L6.42578 2.27539Q6.16211 2.57812 5.89355 2.61719Q5.625 2.65625 5.27344 2.30469L4.10156 1.14258Q3.75 0.791016 3.79395 0.522461Q3.83789 0.253906 4.14062-0.0195312L15.6152-10.8203L14.6387-11.7871L3.04688-0.898438Q2.30469-0.214844 2.25098 0.498047Q2.19727 1.21094 2.8418 1.86523ZM9.25781-16.3281Q8.94531-16.0254 8.90625-15.6348Q8.86719-15.2441 9.04297-14.9512Q9.21875-14.6777 9.55566-14.541Q9.89258-14.4043 10.3809-14.5215Q11.4746-14.7754 12.5977-14.7314Q13.7207-14.6875 14.7949-13.9844L14.209-12.5293Q13.9551-11.9043 14.0674-11.4404Q14.1797-10.9766 14.5801-10.5664L16.875-8.25195Q17.2363-7.88086 17.5781-7.82227Q17.9199-7.76367 18.3398-7.8418L19.4043-8.03711L20.0684-7.36328L20.0293-6.80664Q20-6.43555 20.1221-6.12305Q20.2441-5.81055 20.6055-5.44922L21.3672-4.70703Q21.7285-4.3457 22.1533-4.33105Q22.5781-4.31641 22.9297-4.66797L25.8398-7.58789Q26.1914-7.93945 26.1816-8.35449Q26.1719-8.76953 25.8105-9.13086L25.0391-9.89258Q24.6875-10.2539 24.3799-10.3857Q24.0723-10.5176 23.7109-10.4883L23.1348-10.4395L22.4902-11.0742L22.7344-12.1973Q22.832-12.6172 22.6953-12.9834Q22.5586-13.3496 22.1191-13.7891L19.9219-15.9766Q18.6719-17.2168 17.2607-17.8369Q15.8496-18.457 14.4189-18.4814Q12.9883-18.5059 11.665-17.959Q10.3418-17.4121 9.25781-16.3281ZM10.752-15.957Q11.6602-16.6211 12.7002-16.9043Q13.7402-17.1875 14.8047-17.085Q15.8691-16.9824 16.8701-16.5137Q17.8711-16.0449 18.7012-15.2051L21.1328-12.793Q21.3086-12.6172 21.3525-12.4512Q21.3965-12.2852 21.3379-12.0312L21.0156-10.5469L22.5195-9.0625L23.5059-9.12109Q23.6914-9.13086 23.7891-9.09668Q23.8867-9.0625 24.0332-8.91602L24.6094-8.33984L22.168-5.89844L21.5918-6.47461Q21.4453-6.62109 21.4062-6.71875Q21.3672-6.81641 21.377-7.01172L21.4453-7.98828L19.9512-9.47266L18.4277-9.21875Q18.1836-9.16992 18.042-9.2041Q17.9004-9.23828 17.7148-9.41406L15.7129-11.416Q15.5176-11.5918 15.4932-11.7529Q15.4688-11.9141 15.5859-12.1875L16.4648-14.2773Q15.293-15.3711 13.8281-15.791Q12.3633-16.2109 10.8398-15.7617Q10.7227-15.7324 10.6885-15.8057Q10.6543-15.8789 10.752-15.957Z"/>
  </g>
  <text style="stroke:none;fill:black;font-family:sans-serif;font-size:13;font-weight:bold;" transform="matrix(1 0 0 1 1289 1953)">Exporting</text>
  <text style="stroke:none;fill:black;font-family:sans-serif;font-size:13;" transform="matrix(1 0 0 1 1289 1971)">Symbols should be outlined when exporting to ensure the</text>
  <text style="stroke:none;fill:black;font-family:sans-serif;font-size:13;" transform="matrix(1 0 0 1 1289 1989)">design is preserved when submitting to Xcode.</text>
  <text id="template-version" style="stroke:none;fill:black;font-family:sans-serif;font-size:13;text-anchor:end;" transform="matrix(1 0 0 1 3036 1933)">Template v.3.0</text>
  <text style="stroke:none;fill:black;font-family:sans-serif;font-size:13;text-anchor:end;" transform="matrix(1 0 0 1 3036 1951)">Requires Xcode 13 or greater</text>
  <text id="descriptive-name" style="stroke:none;fill:black;font-family:sans-serif;font-size:13;text-anchor:end;" transform="matrix(1 0 0 1 3036 1969)">Generated from heart.rectangle</text>
  <text style="stroke:none;fill:black;font-family:sans-serif;font-size:13;text-anchor:end;" transform="matrix(1 0 0 1 3036 1987)">Typeset at 100 points</text>
  <text style="stroke:none;fill:black;font-family:sans-serif;font-size:13;" transform="matrix(1 0 0 1 263 726)">Small</text>
  <text style="stroke:none;fill:black;font-family:sans-serif;font-size:13;" transform="matrix(1 0 0 1 263 1156)">Medium</text>
  <text style="stroke:none;fill:black;font-family:sans-serif;font-size:13;" transform="matrix(1 0 0 1 263 1586)">Large</text>
 </g>
 <g id="Guides">
  <g id="H-reference" style="fill:#27AAE1;stroke:none;" transform="matrix(1 0 0 1 339 696)">
   <path d="M0.976562 0L3.66211 0L29.3457-67.1387L30.0293-67.1387L30.0293-70.459L28.125-70.459ZM11.6699-24.4629L46.9727-24.4629L46.2402-26.709L12.4512-26.709ZM55.127 0L57.7637 0L30.6152-70.459L29.4434-70.459L29.4434-67.1387Z"/>
  </g>
  <line id="Baseline-S" style="fill:none;stroke:#27AAE1;opacity:1;stroke-width:0.5;" x1="263" x2="3036" y1="696" y2="696"/>
  <line id="Capline-S" style="fill:none;stroke:#27AAE1;opacity:1;stroke-width:0.5;" x1="263" x2="3036" y1="625.541" y2="625.541"/>
  <g id="H-reference" style="fill:#27AAE1;stroke:none;" transform="matrix(1 0 0 1 339 1126)">
   <path d="M0.976562 0L3.66211 0L29.3457-67.1387L30.0293-67.1387L30.0293-70.459L28.125-70.459ZM11.6699-24.4629L46.9727-24.4629L46.2402-26.709L12.4512-26.709ZM55.127 0L57.7637 0L30.6152-70.459L29.4434-70.459L29.4434-67.1387Z"/>
  </g>
  <line id="Baseline-M" style="fill:none;stroke:#27AAE1;opacity:1;stroke-width:0.5;" x1="263" x2="3036" y1="1126" y2="1126"/>
  <line id="Capline-M" style="fill:none;stroke:#27AAE1;opacity:1;stroke-width:0.5;" x1="263" x2="3036" y1="1055.54" y2="1055.54"/>
  <g id="H-reference" style="fill:#27AAE1;stroke:none;" transform="matrix(1 0 0 1 339 1556)">
   <path d="M0.976562 0L3.66211 0L29.3457-67.1387L30.0293-67.1387L30.0293-70.459L28.125-70.459ZM11.6699-24.4629L46.9727-24.4629L46.2402-26.709L12.4512-26.709ZM55.127 0L57.7637 0L30.6152-70.459L29.4434-70.459L29.4434-67.1387Z"/>
  </g>
  <line id="Baseline-L" style="fill:none;stroke:#27AAE1;opacity:1;stroke-width:0.5;" x1="263" x2="3036" y1="1556" y2="1556"/>
  <line id="Capline-L" style="fill:none;stroke:#27AAE1;opacity:1;stroke-width:0.5;" x1="263" x2="3036" y1="1485.54" y2="1485.54"/>
  <line id="left-margin-Ultralight-S" style="fill:none;stroke:#00AEEF;stroke-width:0.5;opacity:1.0;" x1="505.707" x2="505.707" y1="600.785" y2="720.121"/>
  <line id="right-margin-Ultralight-S" style="fill:none;stroke:#00AEEF;stroke-width:0.5;opacity:1.0;" x1="613.715" x2="613.715" y1="600.785" y2="720.121"/>
  <line id="left-margin-Thin-S" style="fill:none;stroke:#00AEEF;stroke-width:0.5;opacity:1.0;" x1="802.174" x2="802.174" y1="600.785" y2="720.121"/>
  <line id="right-margin-Thin-S" style="fill:none;stroke:#00AEEF;stroke-width:0.5;opacity:1.0;" x1="910.67" x2="910.67" y1="600.785" y2="720.121"/>
  <line id="left-margin-Light-S" style="fill:none;stroke:#00AEEF;stroke-width:0.5;opacity:1.0;" x1="1098.42" x2="1098.42" y1="600.785" y2="720.121"/>
  <line id="right-margin-Light-S" style="fill:none;stroke:#00AEEF;stroke-width:0.5;opacity:1.0;" x1="1207.85" x2="1207.85" y1="600.785" y2="720.121"/>
  <line id="left-margin-Regular-S" style="fill:none;stroke:#00AEEF;stroke-width:0.5;opacity:1.0;" x1="1394.79" x2="1394.79" y1="600.785" y2="720.121"/>
  <line id="right-margin-Regular-S" style="fill:none;stroke:#00AEEF;stroke-width:0.5;opacity:1.0;" x1="1504.9" x2="1504.9" y1="600.785" y2="720.121"/>
  <line id="left-margin-Medium-S" style="fill:none;stroke:#00AEEF;stroke-width:0.5;opacity:1.0;" x1="1691.33" x2="1691.33" y1="600.785" y2="720.121"/>
  <line id="right-margin-Medium-S" style="fill:none;stroke:#00AEEF;stroke-width:0.5;opacity:1.0;" x1="1801.78" x2="1801.78" y1="600.785" y2="720.121"/>
  <line id="left-margin-Semibold-S" style="fill:none;stroke:#00AEEF;stroke-width:0.5;opacity:1.0;" x1="1987.9" x2="1987.9" y1="600.785" y2="720.121"/>
  <line id="right-margin-Semibold-S" style="fill:none;stroke:#00AEEF;stroke-width:0.5;opacity:1.0;" x1="2098.64" x2="2098.64" y1="600.785" y2="720.121"/>
  <line id="left-margin-Bold-S" style="fill:none;stroke:#00AEEF;stroke-width:0.5;opacity:1.0;" x1="2284.41" x2="2284.41" y1="600.785" y2="720.121"/>
  <line id="right-margin-Bold-S" style="fill:none;stroke:#00AEEF;stroke-width:0.5;opacity:1.0;" x1="2395.54" x2="2395.54" y1="600.785" y2="720.121"/>
  <line id="left-margin-Heavy-S" style="fill:none;stroke:#00AEEF;stroke-width:0.5;opacity:1.0;" x1="2580.88" x2="2580.88" y1="600.785" y2="720.121"/>
  <line id="right-margin-Heavy-S" style="fill:none;stroke:#00AEEF;stroke-width:0.5;opacity:1.0;" x1="2692.5" x2="2692.5" y1="600.785" y2="720.121"/>
  <line id="left-margin-Black-S" style="fill:none;stroke:#00AEEF;stroke-width:0.5;opacity:1.0;" x1="2877.35" x2="2877.35" y1="600.785" y2="720.121"/>
  <line id="right-margin-Black-S" style="fill:none;stroke:#00AEEF;stroke-width:0.5;opacity:1.0;" x1="2989.45" x2="2989.45" y1="600.785" y2="720.121"/>
  <line id="left-margin-Ultralight-M" style="fill:none;stroke:#00AEEF;stroke-width:0.5;opacity:1.0;" x1="490.863" x2="490.863" y1="1030.79" y2="1150.12"/>
  <line id="right-margin-Ultralight-M" style="fill:none;stroke:#00AEEF;stroke-width:0.5;opacity:1.0;" x1="628.559" x2="628.559" y1="1030.79" y2="1150.12"/>
  <line id="left-margin-Thin-M" style="fill:none;stroke:#00AEEF;stroke-width:0.5;opacity:1.0;" x1="787.306" x2="787.306" y1="1030.79" y2="1150.12"/>
  <line id="right-margin-Thin-M" style="fill:none;stroke:#00AEEF;stroke-width:0.5;opacity:1.0;" x1="925.538" x2="925.538" y1="1030.79" y2="1150.12"/>
  <line id="left-margin-Light-M" style="fill:none;stroke:#00AEEF;stroke-width:0.5;opacity:1.0;" x1="1083.5" x2="1083.5" y1="1030.79" y2="1150.12"/>
  <line id="right-margin-Light-M" style="fill:none;stroke:#00AEEF;stroke-width:0.5;opacity:1.0;" x1="1222.76" x2="1222.76" y1="1030.79" y2="1150.12"/>
  <line id="left-margin-Regular-M" style="fill:none;stroke:#00AEEF;stroke-width:0.5;opacity:1.0;" x1="1379.82" x2="1379.82" y1="1030.79" y2="1150.12"/>
  <line id="right-margin-Regular-M" style="fill:none;stroke:#00AEEF;stroke-width:0.5;opacity:1.0;" x1="1519.86" x2="1519.86" y1="1030.79" y2="1150.12"/>
  <line id="left-margin-Medium-M" style="fill:none;stroke:#00AEEF;stroke-width:0.5;opacity:1.0;" x1="1676.29" x2="1676.29" y1="1030.79" y2="1150.12"/>
  <line id="right-margin-Medium-M" style="fill:none;stroke:#00AEEF;stroke-width:0.5;opacity:1.0;" x1="1816.82" x2="1816.82" y1="1030.79" y2="1150.12"/>
  <line id="left-margin-Semibold-M" style="fill:none;stroke:#00AEEF;stroke-width:0.5;opacity:1.0;" x1="1972.81" x2="1972.81" y1="1030.79" y2="1150.12"/>
  <line id="right-margin-Semibold-M" style="fill:none;stroke:#00AEEF;stroke-width:0.5;opacity:1.0;" x1="2113.73" x2="2113.73" y1="1030.79" y2="1150.12"/>
  <line id="left-margin-Bold-M" style="fill:none;stroke:#00AEEF;stroke-width:0.5;opacity:1.0;" x1="2269.25" x2="2269.25" y1="1030.79" y2="1150.12"/>
  <line id="right-margin-Bold-M" style="fill:none;stroke:#00AEEF;stroke-width:0.5;opacity:1.0;" x1="2410.71" x2="2410.71" y1="1030.79" y2="1150.12"/>
  <line id="left-margin-Heavy-M" style="fill:none;stroke:#00AEEF;stroke-width:0.5;opacity:1.0;" x1="2565.6" x2="2565.6" y1="1030.79" y2="1150.12"/>
  <line id="right-margin-Heavy-M" style="fill:none;stroke:#00AEEF;stroke-width:0.5;opacity:1.0;" x1="2707.78" x2="2707.78" y1="1030.79" y2="1150.12"/>
  <line id="left-margin-Black-M" style="fill:none;stroke:#00AEEF;stroke-width:0.5;opacity:1.0;" x1="2861.96" x2="2861.96" y1="1030.79" y2="1150.12"/>
  <line id="right-margin-Black-M" style="fill:none;stroke:#00AEEF;stroke-width:0.5;opacity:1.0;" x1="3004.84" x2="3004.84" y1="1030.79" y2="1150.12"/>
  <line id="left-margin-Ultralight-L" style="fill:none;stroke:#00AEEF;stroke-width:0.5;opacity:1.0;" x1="471.015" x2="471.015" y1="1460.79" y2="1580.12"/>
  <line id="right-margin-Ultralight-L" style="fill:none;stroke:#00AEEF;stroke-width:0.5;opacity:1.0;" x1="648.407" x2="648.407" y1="1460.79" y2="1580.12"/>
  <line id="left-margin-Thin-L" style="fill:none;stroke:#00AEEF;stroke-width:0.5;opacity:1.0;" x1="767.409" x2="767.409" y1="1460.79" y2="1580.12"/>
  <line id="right-margin-Thin-L" style="fill:none;stroke:#00AEEF;stroke-width:0.5;opacity:1.0;" x1="945.436" x2="945.436" y1="1460.79" y2="1580.12"/>
  <line id="left-margin-Light-L" style="fill:none;stroke:#00AEEF;stroke-width:0.5;opacity:1.0;" x1="1063.53" x2="1063.53" y1="1460.79" y2="1580.12"/>
  <line id="right-margin-Light-L" style="fill:none;stroke:#00AEEF;stroke-width:0.5;opacity:1.0;" x1="1242.73" x2="1242.73" y1="1460.79" y2="1580.12"/>
  <line id="left-margin-Regular-L" style="fill:none;stroke:#00AEEF;stroke-width:0.5;opacity:1.0;" x1="1359.81" x2="1359.81" y1="1460.79" y2="1580.12"/>
  <line id="right-margin-Regular-L" style="fill:none;stroke:#00AEEF;stroke-width:0.5;opacity:1.0;" x1="1539.88" x2="1539.88" y1="1460.79" y2="1580.12"/>
  <line id="left-margin-Medium-L" style="fill:none;stroke:#00AEEF;stroke-width:0.5;opacity:1.0;" x1="1656.17" x2="1656.17" y1="1460.79" y2="1580.12"/>
  <line id="right-margin-Medium-L" style="fill:none;stroke:#00AEEF;stroke-width:0.5;opacity:1.0;" x1="1836.94" x2="1836.94" y1="1460.79" y2="1580.12"/>
  <line id="left-margin-Semibold-L" style="fill:none;stroke:#00AEEF;stroke-width:0.5;opacity:1.0;" x1="1952.64" x2="1952.64" y1="1460.79" y2="1580.12"/>
  <line id="right-margin-Semibold-L" style="fill:none;stroke:#00AEEF;stroke-width:0.5;opacity:1.0;" x1="2133.89" x2="2133.89" y1="1460.79" y2="1580.12"/>
  <line id="left-margin-Bold-L" style="fill:none;stroke:#00AEEF;stroke-width:0.5;opacity:1.0;" x1="2249.01" x2="2249.01" y1="1460.79" y2="1580.12"/>
  <line id="right-margin-Bold-L" style="fill:none;stroke:#00AEEF;stroke-width:0.5;opacity:1.0;" x1="2430.94" x2="2430.94" y1="1460.79" y2="1580.12"/>
  <line id="left-margin-Heavy-L" style="fill:none;stroke:#00AEEF;stroke-width:0.5;opacity:1.0;" x1="2545.23" x2="2545.23" y1="1460.79" y2="1580.12"/>
  <line id="right-margin-Heavy-L" style="fill:none;stroke:#00AEEF;stroke-width:0.5;opacity:1.0;" x1="2728.14" x2="2728.14" y1="1460.79" y2="1580.12"/>
  <line id="left-margin-Black-L" style="fill:none;stroke:#00AEEF;stroke-width:0.5;opacity:1.0;" x1="2841.51" x2="2841.51" y1="1460.79" y2="1580.12"/>
  <line id="right-margin-Black-L" style="fill:none;stroke:#00AEEF;stroke-width:0.5;opacity:1.0;" x1="3025.29" x2="3025.29" y1="1460.79" y2="1580.12"/>
 </g>
 <g id="Symbols">
  <g id="Black-L" transform="matrix(1 0 0 1 2841.51 1556)">
   <path class="multicolor-0:systemRedColor hierarchical-0:secondary SFSymbolsPreviewFF3B30" d="M39.9902 26.5137L143.799 26.5137Q155.225 26.5137 161.475 20.3125Q167.725 14.1113 167.725 2.68555L167.725-73.0957Q167.725-84.4727 161.475-90.6738Q155.225-96.875 143.799-96.875L39.9902-96.875Q28.5645-96.875 22.3145-90.6738Q16.0645-84.4727 16.0645-73.0957L16.0645 2.68555Q16.0645 14.1113 22.3145 20.3125Q28.5645 26.5137 39.9902 26.5137ZM42.6758 6.29883Q39.5508 6.29883 37.9395 4.78516Q36.3281 3.27148 36.3281-0.146484L36.3281-70.2148Q36.3281-73.6328 37.9395-75.1465Q39.5508-76.6602 42.6758-76.6602L141.064-76.6602Q144.238-76.6602 145.85-75.1465Q147.461-73.6328 147.461-70.2148L147.461-0.146484Q147.461 3.27148 145.85 4.78516Q144.238 6.29883 141.064 6.29883Z"/>
   <path class="multicolor-0:systemRedColor hierarchical-1:primary SFSymbolsPreviewFF3B30" d="M77.7832-61.0352Q73.0469-61.0352 69.165-58.7158Q65.2832-56.3965 62.9639-52.2217Q60.6445-48.0469 60.6445-42.4805Q60.6445-36.7676 62.915-31.7139Q65.1855-26.6602 68.7012-22.4609Q72.2168-18.2617 76.0742-14.9902Q79.9316-11.7188 83.1787-9.52148Q86.4258-7.32422 88.0371-6.34766Q88.916-5.9082 89.9902-5.37109Q91.0645-4.83398 91.9922-4.83398Q92.8711-4.83398 93.8965-5.37109Q94.9219-5.9082 95.8008-6.34766Q97.4121-7.32422 100.684-9.49707Q103.955-11.6699 107.788-14.9414Q111.621-18.2129 115.137-22.4365Q118.652-26.6602 120.923-31.7139Q123.193-36.7676 123.193-42.4805Q123.193-48.0469 120.898-52.2217Q118.604-56.3965 114.697-58.7158Q110.791-61.0352 106.055-61.0352Q100.928-61.0352 97.3633-58.5205Q93.7988-56.0059 91.9434-52.7344Q90.0391-56.0059 86.499-58.5205Q82.959-61.0352 77.7832-61.0352Z"/>
  </g>
  <g id="Heavy-L" transform="matrix(1 0 0 1 2545.23 1556)">
   <path class="multicolor-0:systemRedColor hierarchical-0:secondary SFSymbolsPreviewFF3B30" d="M38.8184 25.4883L144.092 25.4883Q155.029 25.4883 160.938 19.6289Q166.846 13.7695 166.846 2.83203L166.846-73.2422Q166.846-84.1309 160.938-89.9902Q155.029-95.8496 144.092-95.8496L38.8184-95.8496Q27.8809-95.8496 21.9727-90.0146Q16.0645-84.1797 16.0645-73.2422L16.0645 2.83203Q16.0645 13.7695 21.9727 19.6289Q27.8809 25.4883 38.8184 25.4883ZM40.918 8.00781Q37.3047 8.00781 35.4492 6.22559Q33.5938 4.44336 33.5938 0.585938L33.5938-70.9473Q33.5938-74.8047 35.4492-76.5869Q37.3047-78.3691 40.918-78.3691L141.943-78.3691Q145.557-78.3691 147.437-76.5869Q149.316-74.8047 149.316-70.9473L149.316 0.585938Q149.316 4.44336 147.437 6.22559Q145.557 8.00781 141.943 8.00781Z"/>
   <path class="multicolor-0:systemRedColor hierarchical-1:primary SFSymbolsPreviewFF3B30" d="M77.1484-61.5234Q72.2656-61.5234 68.3105-59.1553Q64.3555-56.7871 62.0361-52.5879Q59.7168-48.3887 59.7168-42.8711Q59.7168-37.2559 61.9141-32.2754Q64.1113-27.2949 67.5781-23.0225Q71.0449-18.75 74.9268-15.332Q78.8086-11.9141 82.2754-9.49707Q85.7422-7.08008 87.8418-5.76172Q88.7207-5.32227 89.7217-4.80957Q90.7227-4.29688 91.6016-4.29688Q92.3828-4.29688 93.3594-4.80957Q94.3359-5.32227 95.1172-5.76172Q97.2168-7.08008 100.708-9.49707Q104.199-11.9141 108.081-15.332Q111.963-18.75 115.43-23.0225Q118.896-27.2949 121.094-32.2754Q123.291-37.2559 123.291-42.8711Q123.291-48.3887 120.972-52.5879Q118.652-56.7871 114.697-59.1553Q110.742-61.5234 105.859-61.5234Q100.781-61.5234 97.1436-58.96Q93.5059-56.3965 91.5039-52.9297Q89.502-56.3965 85.8887-58.96Q82.2754-61.5234 77.1484-61.5234Z"/>
  </g>
  <g id="Bold-L" transform="matrix(1 0 0 1 2249.01 1556)">
   <path class="multicolor-0:systemRedColor hierarchical-0:secondary SFSymbolsPreviewFF3B30" d="M37.5488 24.3652L144.385 24.3652Q154.834 24.3652 160.352 18.8965Q165.869 13.4277 165.869 3.02734L165.869-73.4375Q165.869-83.7891 160.352-89.2822Q154.834-94.7754 144.385-94.7754L37.5488-94.7754Q27.0996-94.7754 21.582-89.3066Q16.0645-83.8379 16.0645-73.4375L16.0645 3.02734Q16.0645 13.4277 21.582 18.8965Q27.0996 24.3652 37.5488 24.3652ZM38.9648 9.91211Q34.8633 9.91211 32.6904 7.8125Q30.5176 5.71289 30.5176 1.36719L30.5176-71.7773Q30.5176-76.123 32.6904-78.2227Q34.8633-80.3223 38.9648-80.3223L142.969-80.3223Q147.07-80.3223 149.243-78.2227Q151.416-76.123 151.416-71.7773L151.416 1.36719Q151.416 5.71289 149.243 7.8125Q147.07 9.91211 142.969 9.91211Z"/>
   <path class="multicolor-0:systemRedColor hierarchical-1:primary SFSymbolsPreviewFF3B30" d="M76.416-62.1094Q71.3867-62.1094 67.3828-59.7168Q63.3789-57.3242 61.0352-53.0762Q58.6914-48.8281 58.6914-43.3105Q58.6914-37.8906 60.8154-32.959Q62.9395-28.0273 66.333-23.7061Q69.7266-19.3848 73.6572-15.7959Q77.5879-12.207 81.2988-9.52148Q85.0098-6.83594 87.6953-5.12695Q88.4766-4.6875 89.4287-4.19922Q90.3809-3.71094 91.1621-3.71094Q91.8457-3.71094 92.749-4.19922Q93.6523-4.6875 94.4336-5.12695Q97.0703-6.88477 100.781-9.57031Q104.492-12.2559 108.423-15.8447Q112.354-19.4336 115.771-23.7305Q119.189-28.0273 121.289-32.959Q123.389-37.8906 123.389-43.3105Q123.389-48.8281 121.069-53.0762Q118.75-57.3242 114.722-59.7168Q110.693-62.1094 105.664-62.1094Q100.635-62.1094 96.8994-59.5215Q93.1641-56.9336 91.0645-53.1738Q88.9648-56.9336 85.2539-59.5215Q81.543-62.1094 76.416-62.1094Z"/>
  </g>
  <g id="Semibold-L" transform="matrix(1 0 0 1 1952.64 1556)">
   <path class="multicolor-0:systemRedColor hierarchical-0:secondary SFSymbolsPreviewFF3B30" d="M36.6211 23.5352L144.58 23.5352Q154.688 23.5352 159.937 18.335Q165.186 13.1348 165.186 3.17383L165.186-73.584Q165.186-83.5449 159.937-88.7695Q154.688-93.9941 144.58-93.9941L36.6211-93.9941Q26.5625-93.9941 21.3135-88.7939Q16.0645-83.5938 16.0645-73.584L16.0645 3.17383Q16.0645 13.1836 21.3135 18.3594Q26.5625 23.5352 36.6211 23.5352ZM37.5977 11.2305Q33.1055 11.2305 30.7617 8.91113Q28.418 6.5918 28.418 1.9043L28.418-72.3633Q28.418-77.0508 30.7617-79.3457Q33.1055-81.6406 37.5977-81.6406L143.652-81.6406Q148.047-81.6406 150.439-79.3457Q152.832-77.0508 152.832-72.3633L152.832 1.9043Q152.832 6.5918 150.439 8.91113Q148.047 11.2305 143.652 11.2305Z"/>
   <path class="multicolor-0:systemRedColor hierarchical-1:primary SFSymbolsPreviewFF3B30" d="M75.8789-62.4512Q70.752-62.4512 66.6992-60.0342Q62.6465-57.6172 60.3027-53.3447Q57.959-49.0723 57.959-43.6035Q57.959-38.2812 60.0098-33.374Q62.0605-28.4668 65.4053-24.0967Q68.75-19.7266 72.7051-16.04Q76.6602-12.3535 80.5664-9.47266Q84.4727-6.5918 87.5-4.6875Q88.2812-4.24805 89.1846-3.75977Q90.0879-3.27148 90.8203-3.27148Q91.4551-3.27148 92.3096-3.75977Q93.1641-4.24805 93.8965-4.6875Q96.875-6.68945 100.781-9.57031Q104.688-12.4512 108.643-16.1377Q112.598-19.8242 115.967-24.1699Q119.336-28.5156 121.387-33.3984Q123.438-38.2812 123.438-43.6035Q123.438-49.0723 121.094-53.3447Q118.75-57.6172 114.697-60.0342Q110.645-62.4512 105.518-62.4512Q100.488-62.4512 96.6797-59.8389Q92.8711-57.2266 90.7227-53.3203Q88.5742-57.2266 84.7656-59.8389Q80.957-62.4512 75.8789-62.4512Z"/>
  </g>
  <g id="Medium-L" transform="matrix(1 0 0 1 1656.17 1556)">
   <path class="multicolor-0:systemRedColor hierarchical-0:secondary SFSymbolsPreviewFF3B30" d="M35.9375 22.9492L144.775 22.9492Q154.59 22.9492 159.644 17.9443Q164.697 12.9395 164.697 3.22266L164.697-73.6328Q164.697-83.3496 159.644-88.3789Q154.59-93.4082 144.775-93.4082L35.9375-93.4082Q26.1719-93.4082 21.1182-88.4033Q16.0645-83.3984 16.0645-73.6328L16.0645 3.22266Q16.0645 12.9883 21.1182 17.9688Q26.1719 22.9492 35.9375 22.9492ZM36.5723 12.207Q31.8359 12.207 29.3213 9.74121Q26.8066 7.27539 26.8066 2.34375L26.8066-72.7539Q26.8066-77.7344 29.3213-80.2002Q31.8359-82.666 36.5723-82.666L144.141-82.666Q148.828-82.666 151.367-80.2002Q153.906-77.7344 153.906-72.7539L153.906 2.34375Q153.906 7.27539 151.367 9.74121Q148.828 12.207 144.141 12.207Z"/>
   <path class="multicolor-0:systemRedColor hierarchical-1:primary SFSymbolsPreviewFF3B30" d="M75.5371-62.793Q70.3125-62.793 66.2354-60.3516Q62.1582-57.9102 59.79-53.6377Q57.4219-49.3652 57.4219-43.8477Q57.4219-38.623 59.4238-33.7402Q61.4258-28.8574 64.7461-24.4629Q68.0664-20.0684 72.0459-16.3086Q76.0254-12.5488 80.0537-9.52148Q84.082-6.49414 87.4023-4.3457Q88.1836-3.90625 89.0625-3.4668Q89.9414-3.02734 90.5762-3.02734Q91.1621-3.02734 91.9922-3.4668Q92.8223-3.90625 93.5059-4.3457Q96.7773-6.5918 100.806-9.61914Q104.834-12.6465 108.813-16.4307Q112.793-20.2148 116.138-24.5605Q119.482-28.9062 121.484-33.7646Q123.486-38.623 123.486-43.8477Q123.486-49.3652 121.143-53.6377Q118.799-57.9102 114.697-60.3516Q110.596-62.793 105.371-62.793Q100.391-62.793 96.5332-60.1562Q92.6758-57.5195 90.4785-53.4668Q88.2812-57.5195 84.4238-60.1562Q80.5664-62.793 75.5371-62.793Z"/>
  </g>
  <g id="Regular-L" transform="matrix(1 0 0 1 1359.81 1556)">
   <path class="multicolor-0:systemRedColor hierarchical-0:secondary SFSymbolsPreviewFF3B30" d="M35.0586 22.168L144.971 22.168Q154.443 22.168 159.229 17.4316Q164.014 12.6953 164.014 3.36914L164.014-73.7793Q164.014-83.1055 159.229-87.8662Q154.443-92.627 144.971-92.627L35.0586-92.627Q25.6348-92.627 20.8496-87.8906Q16.0645-83.1543 16.0645-73.7793L16.0645 3.36914Q16.0645 12.7441 20.8496 17.4561Q25.6348 22.168 35.0586 22.168ZM35.2539 13.5254Q30.127 13.5254 27.417 10.8398Q24.707 8.1543 24.707 2.88086L24.707-73.3398Q24.707-78.6133 27.417-81.2988Q30.127-83.9844 35.2539-83.9844L144.824-83.9844Q149.854-83.9844 152.588-81.2988Q155.322-78.6133 155.322-73.3398L155.322 2.88086Q155.322 8.1543 152.588 10.8398Q149.854 13.5254 144.824 13.5254Z"/>
   <path class="multicolor-0:systemRedColor hierarchical-1:primary SFSymbolsPreviewFF3B30" d="M75-63.1348Q69.6777-63.1348 65.5518-60.6689Q61.4258-58.2031 59.0576-53.9062Q56.6895-49.6094 56.6895-44.1406Q56.6895-39.0137 58.6426-34.1797Q60.5957-29.3457 63.8672-24.9023Q67.1387-20.459 71.1426-16.5771Q75.1465-12.6953 79.3457-9.49707Q83.5449-6.29883 87.2559-3.90625Q87.9883-3.4668 88.8184-3.02734Q89.6484-2.58789 90.2344-2.58789Q90.7715-2.58789 91.5527-3.02734Q92.334-3.4668 92.9688-3.90625Q96.6309-6.39648 100.806-9.61914Q104.98-12.8418 109.009-16.7236Q113.037-20.6055 116.333-25Q119.629-29.3945 121.582-34.2041Q123.535-39.0137 123.535-44.1406Q123.535-49.6094 121.167-53.9062Q118.799-58.2031 114.673-60.6689Q110.547-63.1348 105.225-63.1348Q100.244-63.1348 96.3379-60.4736Q92.4316-57.8125 90.1367-53.6133Q87.8418-57.8125 83.9355-60.4736Q80.0293-63.1348 75-63.1348Z"/>
  </g>
  <g id="Light-L" transform="matrix(1 0 0 1 1063.53 1556)">
   <path class="multicolor-0:systemRedColor hierarchical-0:secondary SFSymbolsPreviewFF3B30" d="M34.0332 21.3379L145.117 21.3379Q154.053 21.3379 158.594 16.7969Q163.135 12.2559 163.135 3.4668L163.135-73.9258Q163.135-82.7148 158.594-87.2559Q154.053-91.7969 145.117-91.7969L34.0332-91.7969Q25.1465-91.7969 20.6055-87.2803Q16.0645-82.7637 16.0645-73.9258L16.0645 3.4668Q16.0645 12.3047 20.6055 16.8213Q25.1465 21.3379 34.0332 21.3379ZM34.2285 14.6973Q28.5645 14.6973 25.6104 11.7676Q22.6562 8.83789 22.6562 3.125L22.6562-73.584Q22.6562-79.3457 25.6104-82.2754Q28.5645-85.2051 34.2285-85.2051L144.971-85.2051Q150.488-85.2051 153.491-82.2754Q156.494-79.3457 156.494-73.584L156.494 3.125Q156.494 8.83789 153.491 11.7676Q150.488 14.6973 144.971 14.6973Z"/>
   <path class="multicolor-0:systemRedColor hierarchical-1:primary SFSymbolsPreviewFF3B30" d="M74.5605-63.3301Q69.2871-63.3301 65.1855-60.8887Q61.084-58.4473 58.7158-54.1992Q56.3477-49.9512 56.3477-44.5801Q56.3477-39.3066 58.3984-34.3506Q60.4492-29.3945 63.8184-24.8779Q67.1875-20.3613 71.2646-16.4795Q75.3418-12.5977 79.4922-9.47266Q83.6426-6.34766 87.1582-4.10156Q87.793-3.71094 88.501-3.34473Q89.209-2.97852 89.7461-2.97852Q90.2344-2.97852 90.918-3.32031Q91.6016-3.66211 92.1875-4.10156Q95.5566-6.49414 99.6826-9.66797Q103.809-12.8418 107.91-16.7236Q112.012-20.6055 115.43-25.0488Q118.848-29.4922 120.923-34.3994Q122.998-39.3066 122.998-44.5801Q122.998-49.9512 120.63-54.1992Q118.262-58.4473 114.16-60.8887Q110.059-63.3301 104.785-63.3301Q99.8047-63.3301 95.8496-60.6201Q91.8945-57.9102 89.6973-53.9062Q87.4512-57.9102 83.5205-60.6201Q79.5898-63.3301 74.5605-63.3301Z"/>
  </g>
  <g id="Thin-L" transform="matrix(1 0 0 1 767.409 1556)">
   <path class="multicolor-0:systemRedColor hierarchical-0:secondary SFSymbolsPreviewFF3B30" d="M32.666 20.2148L145.312 20.2148Q153.516 20.2148 157.739 15.918Q161.963 11.6211 161.963 3.61328L161.963-74.1211Q161.963-82.1777 157.739-86.4502Q153.516-90.7227 145.312-90.7227L32.666-90.7227Q24.5117-90.7227 20.2881-86.499Q16.0645-82.2754 16.0645-74.1211L16.0645 3.61328Q16.0645 11.7676 20.2881 15.9912Q24.5117 20.2148 32.666 20.2148ZM32.8125 16.2598Q26.5137 16.2598 23.2666 13.0127Q20.0195 9.76562 20.0195 3.41797L20.0195-73.9258Q20.0195-80.3223 23.2666-83.5693Q26.5137-86.8164 32.8125-86.8164L145.166-86.8164Q151.318-86.8164 154.663-83.5693Q158.008-80.3223 158.008-73.9258L158.008 3.41797Q158.008 9.76562 154.663 13.0127Q151.318 16.2598 145.166 16.2598Z"/>
   <path class="multicolor-0:systemRedColor hierarchical-1:primary SFSymbolsPreviewFF3B30" d="M73.9258-63.5742Q68.7012-63.5742 64.624-61.1572Q60.5469-58.7402 58.2031-54.5654Q55.8594-50.3906 55.8594-45.166Q55.8594-39.6973 58.0322-34.5703Q60.2051-29.4434 63.7207-24.8535Q67.2363-20.2637 71.3867-16.3574Q75.5371-12.4512 79.6387-9.39941Q83.7402-6.34766 87.0117-4.29688Q87.5-4.00391 88.0615-3.73535Q88.623-3.4668 89.0625-3.4668Q89.4531-3.4668 90.0146-3.71094Q90.5762-3.95508 91.0645-4.29688Q94.1406-6.5918 98.1934-9.7168Q102.246-12.8418 106.445-16.6992Q110.645-20.5566 114.233-25.0488Q117.822-29.541 120.02-34.6191Q122.217-39.6973 122.217-45.166Q122.217-50.3906 119.873-54.5654Q117.529-58.7402 113.452-61.1572Q109.375-63.5742 104.15-63.5742Q99.2188-63.5742 95.1904-60.8154Q91.1621-58.0566 89.0137-54.248Q86.9141-58.0566 82.9102-60.8154Q78.9062-63.5742 73.9258-63.5742Z"/>
  </g>
  <g id="Ultralight-L" transform="matrix(1 0 0 1 471.015 1556)">
   <path class="multicolor-0:systemRedColor hierarchical-0:secondary SFSymbolsPreviewFF3B30" d="M31.9824 19.6289L145.41 19.6289Q153.223 19.6289 157.275 15.4785Q161.328 11.3281 161.328 3.71094L161.328-74.2188Q161.328-81.8848 157.275-86.0352Q153.223-90.1855 145.41-90.1855L31.9824-90.1855Q24.1699-90.1855 20.1172-86.1084Q16.0645-82.0312 16.0645-74.2188L16.0645 3.71094Q16.0645 11.4746 20.1172 15.5518Q24.1699 19.6289 31.9824 19.6289ZM32.1289 17.0898Q25.4395 17.0898 22.0215 13.6719Q18.6035 10.2539 18.6035 3.56445L18.6035-74.1211Q18.6035-80.8105 22.0215-84.2041Q25.4395-87.5977 32.1289-87.5977L145.264-87.5977Q151.709-87.5977 155.249-84.2041Q158.789-80.8105 158.789-74.1211L158.789 3.56445Q158.789 10.2539 155.249 13.6719Q151.709 17.0898 145.264 17.0898Z"/>
   <path class="multicolor-0:systemRedColor hierarchical-1:primary SFSymbolsPreviewFF3B30" d="M73.6328-63.7207Q68.457-63.7207 64.4043-61.3281Q60.3516-58.9355 58.0078-54.8096Q55.6641-50.6836 55.6641-45.5078Q55.6641-39.8926 57.8857-34.6924Q60.1074-29.4922 63.6963-24.8535Q67.2852-20.2148 71.5088-16.3086Q75.7324-12.4023 79.7852-9.39941Q83.8379-6.39648 86.9629-4.44336Q87.4023-4.15039 87.8906-3.93066Q88.3789-3.71094 88.7695-3.71094Q89.1113-3.71094 89.624-3.90625Q90.1367-4.10156 90.5762-4.44336Q93.457-6.68945 97.4854-9.76562Q101.514-12.8418 105.762-16.6992Q110.01-20.5566 113.672-25.0977Q117.334-29.6387 119.604-34.7656Q121.875-39.8926 121.875-45.5078Q121.875-50.6836 119.531-54.8096Q117.188-58.9355 113.135-61.3281Q109.082-63.7207 103.857-63.7207Q98.9258-63.7207 94.8975-60.9375Q90.8691-58.1543 88.7695-54.4434Q86.6699-58.1543 82.666-60.9375Q78.6621-63.7207 73.6328-63.7207Z"/>
  </g>
  <g id="Black-M" transform="matrix(1 0 0 1 2861.96 1126)">
   <path class="multicolor-0:systemRedColor hierarchical-0:secondary SFSymbolsPreviewFF3B30" d="M31.5918 13.2324L111.279 13.2324Q120.312 13.2324 125.366 8.17871Q130.42 3.125 130.42-5.9082L130.42-64.4531Q130.42-73.5352 125.366-78.5645Q120.312-83.5938 111.279-83.5938L31.5918-83.5938Q22.5586-83.5938 17.5049-78.5645Q12.4512-73.5352 12.4512-64.4531L12.4512-5.9082Q12.4512 3.125 17.5049 8.17871Q22.5586 13.2324 31.5918 13.2324ZM34.2285-4.10156Q31.9824-4.10156 30.8838-5.12695Q29.7852-6.15234 29.7852-8.59375L29.7852-61.8164Q29.7852-64.2578 30.8838-65.2588Q31.9824-66.2598 34.2285-66.2598L108.643-66.2598Q110.889-66.2598 111.987-65.2588Q113.086-64.2578 113.086-61.8164L113.086-8.59375Q113.086-6.15234 111.987-5.12695Q110.889-4.10156 108.643-4.10156Z"/>
   <path class="multicolor-0:systemRedColor hierarchical-1:primary SFSymbolsPreviewFF3B30" d="M60.7422-54.8828Q57.1777-54.8828 54.2236-53.125Q51.2695-51.3672 49.4873-48.1689Q47.7051-44.9707 47.7051-40.6738Q47.7051-36.0352 49.5605-32.0557Q51.416-28.0762 54.248-24.8291Q57.0801-21.582 60.0342-19.165Q62.9883-16.748 65.3076-15.2832Q67.627-13.8184 68.4082-13.3789Q69.043-13.0859 69.8975-12.6709Q70.752-12.2559 71.4844-12.2559Q72.2168-12.2559 73.0469-12.6709Q73.877-13.0859 74.5605-13.3789Q75.3418-13.8184 77.6611-15.2832Q79.9805-16.748 82.9346-19.165Q85.8887-21.582 88.7207-24.8291Q91.5527-28.0762 93.4082-32.0557Q95.2637-36.0352 95.2637-40.6738Q95.2637-44.9707 93.4814-48.1689Q91.6992-51.3672 88.7451-53.125Q85.791-54.8828 82.2266-54.8828Q78.2227-54.8828 75.5371-52.9297Q72.8516-50.9766 71.4844-48.7305Q70.1172-50.9766 67.4316-52.9297Q64.7461-54.8828 60.7422-54.8828Z"/>
  </g>
  <g id="Heavy-M" transform="matrix(1 0 0 1 2565.6 1126)">
   <path class="multicolor-0:systemRedColor hierarchical-0:secondary SFSymbolsPreviewFF3B30" d="M30.7129 12.4023L111.523 12.4023Q120.215 12.4023 124.976 7.6416Q129.736 2.88086 129.736-5.76172L129.736-64.5996Q129.736-73.291 124.976-78.0273Q120.215-82.7637 111.523-82.7637L30.7129-82.7637Q21.9727-82.7637 17.2119-78.0518Q12.4512-73.3398 12.4512-64.5996L12.4512-5.76172Q12.4512 2.88086 17.2119 7.6416Q21.9727 12.4023 30.7129 12.4023ZM32.7148-2.68555Q30.127-2.68555 28.833-3.93066Q27.5391-5.17578 27.5391-7.95898L27.5391-62.4512Q27.5391-65.2344 28.833-66.4551Q30.127-67.6758 32.7148-67.6758L109.473-67.6758Q112.061-67.6758 113.354-66.4551Q114.648-65.2344 114.648-62.4512L114.648-7.95898Q114.648-5.17578 113.354-3.93066Q112.061-2.68555 109.473-2.68555Z"/>
   <path class="multicolor-0:systemRedColor hierarchical-1:primary SFSymbolsPreviewFF3B30" d="M60.2051-55.3223Q56.4941-55.3223 53.4668-53.5156Q50.4395-51.709 48.6572-48.4863Q46.875-45.2637 46.875-40.918Q46.875-36.4746 48.6328-32.5684Q50.3906-28.6621 53.1494-25.3906Q55.9082-22.1191 58.8867-19.5557Q61.8652-16.9922 64.4043-15.2832Q66.9434-13.5742 68.2617-12.7441Q68.8965-12.4512 69.7021-12.0361Q70.5078-11.6211 71.1914-11.6211Q71.875-11.6211 72.6562-12.0361Q73.4375-12.4512 74.0723-12.7441Q75.3906-13.5742 77.9297-15.2832Q80.4688-16.9922 83.4473-19.5557Q86.4258-22.1191 89.1846-25.3906Q91.9434-28.6621 93.7012-32.5684Q95.459-36.4746 95.459-40.918Q95.459-45.2637 93.6768-48.4863Q91.8945-51.709 88.8672-53.5156Q85.8398-55.3223 82.1289-55.3223Q78.1738-55.3223 75.415-53.3447Q72.6562-51.3672 71.1914-48.877Q69.6777-51.3672 66.9189-53.3447Q64.1602-55.3223 60.2051-55.3223Z"/>
  </g>
  <g id="Bold-M" transform="matrix(1 0 0 1 2269.25 1126)">
   <path class="multicolor-0:systemRedColor hierarchical-0:secondary SFSymbolsPreviewFF3B30" d="M29.6875 11.4746L111.768 11.4746Q120.166 11.4746 124.585 7.05566Q129.004 2.63672 129.004-5.66406L129.004-64.7461Q129.004-73.0469 124.585-77.4658Q120.166-81.8848 111.768-81.8848L29.6875-81.8848Q21.3379-81.8848 16.8945-77.4902Q12.4512-73.0957 12.4512-64.7461L12.4512-5.66406Q12.4512 2.63672 16.8945 7.05566Q21.3379 11.4746 29.6875 11.4746ZM31.0547-1.12305Q28.125-1.12305 26.5869-2.6123Q25.0488-4.10156 25.0488-7.22656L25.0488-63.2324Q25.0488-66.3574 26.5869-67.8223Q28.125-69.2871 31.0547-69.2871L110.4-69.2871Q113.33-69.2871 114.868-67.8223Q116.406-66.3574 116.406-63.2324L116.406-7.22656Q116.406-4.10156 114.868-2.6123Q113.33-1.12305 110.4-1.12305Z"/>
   <path class="multicolor-0:systemRedColor hierarchical-1:primary SFSymbolsPreviewFF3B30" d="M59.6191-55.8594Q55.7617-55.8594 52.6611-54.0039Q49.5605-52.1484 47.7539-48.877Q45.9473-45.6055 45.9473-41.3086Q45.9473-37.0605 47.6074-33.2275Q49.2676-29.3945 51.9287-26.0742Q54.5898-22.7539 57.5928-20.0195Q60.5957-17.2852 63.4033-15.3076Q66.2109-13.3301 68.0664-12.1582Q68.7012-11.8164 69.4824-11.4258Q70.2637-11.0352 70.8984-11.0352Q71.4844-11.0352 72.2168-11.4258Q72.9492-11.8164 73.584-12.1582Q75.4395-13.3301 78.2471-15.332Q81.0547-17.334 84.0576-20.0439Q87.0605-22.7539 89.7217-26.0742Q92.3828-29.3945 94.043-33.2275Q95.7031-37.0605 95.7031-41.3086Q95.7031-45.6055 93.8965-48.877Q92.0898-52.1484 89.0137-54.0039Q85.9375-55.8594 82.0801-55.8594Q78.125-55.8594 75.2686-53.8574Q72.4121-51.8555 70.8496-49.0723Q69.2383-51.8555 66.4062-53.8574Q63.5742-55.8594 59.6191-55.8594Z"/>
  </g>
  <g id="Semibold-M" transform="matrix(1 0 0 1 1972.81 1126)">
   <path class="multicolor-0:systemRedColor hierarchical-0:secondary SFSymbolsPreviewFF3B30" d="M29.0039 10.8398L111.963 10.8398Q120.068 10.8398 124.268 6.64062Q128.467 2.44141 128.467-5.51758L128.467-64.8438Q128.467-72.8516 124.268-77.0508Q120.068-81.25 111.963-81.25L29.0039-81.25Q20.8984-81.25 16.6748-77.0752Q12.4512-72.9004 12.4512-64.8438L12.4512-5.51758Q12.4512 2.44141 16.6748 6.64062Q20.8984 10.8398 29.0039 10.8398ZM29.8828-0.0488281Q26.709-0.0488281 25.0244-1.68457Q23.3398-3.32031 23.3398-6.68945L23.3398-63.7207Q23.3398-67.0898 25.0244-68.75Q26.709-70.4102 29.8828-70.4102L111.035-70.4102Q114.209-70.4102 115.918-68.75Q117.627-67.0898 117.627-63.7207L117.627-6.68945Q117.627-3.32031 115.918-1.68457Q114.209-0.0488281 111.035-0.0488281Z"/>
   <path class="multicolor-0:systemRedColor hierarchical-1:primary SFSymbolsPreviewFF3B30" d="M59.1309-56.1523Q55.1758-56.1523 52.0264-54.2725Q48.877-52.3926 47.0703-49.0967Q45.2637-45.8008 45.2637-41.5039Q45.2637-37.4023 46.8506-33.6182Q48.4375-29.834 51.0254-26.4893Q53.6133-23.1445 56.6406-20.3125Q59.668-17.4805 62.6465-15.2832Q65.625-13.0859 67.9199-11.6699Q68.5547-11.3281 69.2871-10.9375Q70.0195-10.5469 70.6055-10.5469Q71.1426-10.5469 71.8506-10.9131Q72.5586-11.2793 73.1445-11.6699Q75.4395-13.1348 78.3936-15.332Q81.3477-17.5293 84.3994-20.3369Q87.4512-23.1445 90.0391-26.4893Q92.627-29.834 94.2139-33.6182Q95.8008-37.4023 95.8008-41.5039Q95.8008-45.8008 93.9697-49.0967Q92.1387-52.3926 89.0381-54.2725Q85.9375-56.1523 81.9336-56.1523Q78.0273-56.1523 75.1221-54.1504Q72.2168-52.1484 70.5566-49.1699Q68.8965-52.1484 65.9912-54.1504Q63.0859-56.1523 59.1309-56.1523Z"/>
  </g>
  <g id="Medium-M" transform="matrix(1 0 0 1 1676.29 1126)">
   <path class="multicolor-0:systemRedColor hierarchical-0:secondary SFSymbolsPreviewFF3B30" d="M28.4668 10.3516L112.061 10.3516Q120.02 10.3516 124.048 6.34766Q128.076 2.34375 128.076-5.46875L128.076-64.9414Q128.076-72.7539 124.048-76.7822Q120.02-80.8105 112.061-80.8105L28.4668-80.8105Q20.5566-80.8105 16.5039-76.7822Q12.4512-72.7539 12.4512-64.9414L12.4512-5.46875Q12.4512 2.34375 16.5039 6.34766Q20.5566 10.3516 28.4668 10.3516ZM29.0039 0.78125Q25.6348 0.78125 23.8281-0.976562Q22.0215-2.73438 22.0215-6.29883L22.0215-64.1113Q22.0215-67.6758 23.8281-69.458Q25.6348-71.2402 29.0039-71.2402L111.523-71.2402Q114.893-71.2402 116.724-69.458Q118.555-67.6758 118.555-64.1113L118.555-6.29883Q118.555-2.73438 116.724-0.976562Q114.893 0.78125 111.523 0.78125Z"/>
   <path class="multicolor-0:systemRedColor hierarchical-1:primary SFSymbolsPreviewFF3B30" d="M58.8379-56.4453Q54.7852-56.4453 51.6113-54.5654Q48.4375-52.6855 46.6064-49.3652Q44.7754-46.0449 44.7754-41.6992Q44.7754-37.6953 46.3135-33.96Q47.8516-30.2246 50.3906-26.8555Q52.9297-23.4863 55.9814-20.5566Q59.0332-17.627 62.1338-15.3076Q65.2344-12.9883 67.8223-11.377Q68.457-11.0352 69.1895-10.6445Q69.9219-10.2539 70.459-10.2539Q70.9473-10.2539 71.6309-10.6201Q72.3145-10.9863 72.8516-11.377Q75.4395-13.0371 78.54-15.3809Q81.6406-17.7246 84.6924-20.6299Q87.7441-23.5352 90.3076-26.9043Q92.8711-30.2734 94.4092-33.9844Q95.9473-37.6953 95.9473-41.6992Q95.9473-46.0449 94.0918-49.3652Q92.2363-52.6855 89.0869-54.5654Q85.9375-56.4453 81.8848-56.4453Q78.0273-56.4453 75.0488-54.4189Q72.0703-52.3926 70.3613-49.2676Q68.6523-52.3926 65.6982-54.4189Q62.7441-56.4453 58.8379-56.4453Z"/>
  </g>
  <g id="Regular-M" transform="matrix(1 0 0 1 1379.82 1126)">
   <path class="multicolor-0:systemRedColor hierarchical-0:secondary SFSymbolsPreviewFF3B30" d="M27.7832 9.7168L112.256 9.7168Q119.971 9.7168 123.779 5.93262Q127.588 2.14844 127.588-5.37109L127.588-65.0391Q127.588-72.5586 123.779-76.3672Q119.971-80.1758 112.256-80.1758L27.7832-80.1758Q20.1172-80.1758 16.2842-76.3916Q12.4512-72.6074 12.4512-65.0391L12.4512-5.37109Q12.4512 2.14844 16.2842 5.93262Q20.1172 9.7168 27.7832 9.7168ZM27.8809 1.85547Q24.2188 1.85547 22.2656-0.0732422Q20.3125-2.00195 20.3125-5.81055L20.3125-64.5996Q20.3125-68.4082 22.2656-70.3613Q24.2188-72.3145 27.8809-72.3145L112.158-72.3145Q115.771-72.3145 117.749-70.3613Q119.727-68.4082 119.727-64.5996L119.727-5.81055Q119.727-2.00195 117.749-0.0732422Q115.771 1.85547 112.158 1.85547Z"/>
   <path class="multicolor-0:systemRedColor hierarchical-1:primary SFSymbolsPreviewFF3B30" d="M58.3984-56.7871Q54.248-56.7871 51.0254-54.8584Q47.8027-52.9297 45.9717-49.585Q44.1406-46.2402 44.1406-41.8945Q44.1406-38.0371 45.6055-34.3506Q47.0703-30.6641 49.5361-27.2705Q52.002-23.877 55.0781-20.8496Q58.1543-17.8223 61.4258-15.3076Q64.6973-12.793 67.6758-10.8887Q68.3105-10.5469 69.0186-10.1562Q69.7266-9.76562 70.2148-9.76562Q70.6543-9.76562 71.3135-10.1318Q71.9727-10.498 72.5098-10.8887Q75.4883-12.8418 78.7598-15.3809Q82.0312-17.9199 85.1074-20.9229Q88.1836-23.9258 90.6738-27.3193Q93.1641-30.7129 94.6289-34.375Q96.0938-38.0371 96.0938-41.8945Q96.0938-46.2402 94.2383-49.585Q92.3828-52.9297 89.1846-54.8584Q85.9863-56.7871 81.8359-56.7871Q77.9785-56.7871 74.9512-54.7363Q71.9238-52.6855 70.1172-49.3652Q68.3105-52.6855 65.3076-54.7363Q62.3047-56.7871 58.3984-56.7871Z"/>
  </g>
  <g id="Light-M" transform="matrix(1 0 0 1 1083.5 1126)">
   <path class="multicolor-0:systemRedColor hierarchical-0:secondary SFSymbolsPreviewFF3B30" d="M26.8555 8.98438L112.402 8.98438Q119.58 8.98438 123.193 5.37109Q126.807 1.75781 126.807-5.27344L126.807-65.1855Q126.807-72.2168 123.193-75.8301Q119.58-79.4434 112.402-79.4434L26.8555-79.4434Q19.6777-79.4434 16.0645-75.8545Q12.4512-72.2656 12.4512-65.1855L12.4512-5.27344Q12.4512 1.80664 16.0645 5.39551Q19.6777 8.98438 26.8555 8.98438ZM26.9531 2.92969Q22.8027 2.92969 20.6543 0.78125Q18.5059-1.36719 18.5059-5.61523L18.5059-64.8438Q18.5059-69.0918 20.6543-71.2402Q22.8027-73.3887 26.9531-73.3887L112.305-73.3887Q116.309-73.3887 118.53-71.2402Q120.752-69.0918 120.752-64.8438L120.752-5.61523Q120.752-1.36719 118.53 0.78125Q116.309 2.92969 112.305 2.92969Z"/>
   <path class="multicolor-0:systemRedColor hierarchical-1:primary SFSymbolsPreviewFF3B30" d="M57.959-56.9824Q53.8574-56.9824 50.6592-55.0781Q47.4609-53.1738 45.6299-49.8779Q43.7988-46.582 43.7988-42.2852Q43.7988-38.2812 45.3369-34.4971Q46.875-30.7129 49.4385-27.2705Q52.002-23.8281 55.1514-20.8008Q58.3008-17.7734 61.5234-15.3076Q64.7461-12.8418 67.5293-11.0352Q68.1152-10.7422 68.7256-10.4248Q69.3359-10.1074 69.7266-10.1074Q70.1172-10.1074 70.7031-10.4004Q71.2891-10.6934 71.7773-11.0352Q74.5117-12.9395 77.7344-15.4297Q80.957-17.9199 84.1064-20.9229Q87.2559-23.9258 89.8438-27.3682Q92.4316-30.8105 93.9941-34.5459Q95.5566-38.2812 95.5566-42.2852Q95.5566-46.582 93.7012-49.8779Q91.8457-53.1738 88.6719-55.0781Q85.498-56.9824 81.3965-56.9824Q77.5391-56.9824 74.4873-54.8828Q71.4355-52.7832 69.6777-49.6094Q67.9199-52.7832 64.8926-54.8828Q61.8652-56.9824 57.959-56.9824Z"/>
  </g>
  <g id="Thin-M" transform="matrix(1 0 0 1 787.306 1126)">
   <path class="multicolor-0:systemRedColor hierarchical-0:secondary SFSymbolsPreviewFF3B30" d="M25.5859 7.95898L112.549 7.95898Q119.092 7.95898 122.437 4.58984Q125.781 1.2207 125.781-5.17578L125.781-65.332Q125.781-71.7285 122.437-75.0977Q119.092-78.4668 112.549-78.4668L25.5859-78.4668Q19.1406-78.4668 15.7959-75.1221Q12.4512-71.7773 12.4512-65.332L12.4512-5.17578Q12.4512 1.31836 15.7959 4.63867Q19.1406 7.95898 25.5859 7.95898ZM25.7324 4.3457Q20.9961 4.3457 18.5547 1.9043Q16.1133-0.537109 16.1133-5.37109L16.1133-65.1855Q16.1133-69.9707 18.5547-72.4121Q20.9961-74.8535 25.7324-74.8535L112.451-74.8535Q117.09-74.8535 119.604-72.4121Q122.119-69.9707 122.119-65.1855L122.119-5.37109Q122.119-0.537109 119.604 1.9043Q117.09 4.3457 112.451 4.3457Z"/>
   <path class="multicolor-0:systemRedColor hierarchical-1:primary SFSymbolsPreviewFF3B30" d="M57.4219-57.1289Q53.3691-57.1289 50.1953-55.2734Q47.0215-53.418 45.2148-50.1709Q43.4082-46.9238 43.4082-42.7734Q43.4082-38.5742 45.0439-34.6436Q46.6797-30.7129 49.3896-27.1729Q52.0996-23.6328 55.2979-20.6055Q58.4961-17.5781 61.6943-15.21Q64.8926-12.8418 67.4316-11.2305Q67.8711-10.9863 68.3594-10.7422Q68.8477-10.498 69.1895-10.498Q69.4824-10.498 69.9463-10.7178Q70.4102-10.9375 70.8496-11.2305Q73.291-12.9883 76.4404-15.4297Q79.5898-17.8711 82.8125-20.874Q86.0352-23.877 88.7695-27.3438Q91.5039-30.8105 93.2129-34.6924Q94.9219-38.5742 94.9219-42.7734Q94.9219-46.9238 93.0664-50.1709Q91.2109-53.418 88.0615-55.2734Q84.9121-57.1289 80.8594-57.1289Q77.0508-57.1289 73.9258-55.0049Q70.8008-52.8809 69.1406-49.8535Q67.4805-52.8809 64.4043-55.0049Q61.3281-57.1289 57.4219-57.1289Z"/>
  </g>
  <g id="Ultralight-M" transform="matrix(1 0 0 1 490.863 1126)">
   <path class="multicolor-0:systemRedColor hierarchical-0:secondary SFSymbolsPreviewFF3B30" d="M24.9512 7.4707L112.646 7.4707Q118.848 7.4707 122.046 4.22363Q125.244 0.976562 125.244-5.07812L125.244-65.4297Q125.244-71.4844 122.046-74.7314Q118.848-77.9785 112.646-77.9785L24.9512-77.9785Q18.8477-77.9785 15.6494-74.7803Q12.4512-71.582 12.4512-65.4297L12.4512-5.07812Q12.4512 1.07422 15.6494 4.27246Q18.8477 7.4707 24.9512 7.4707ZM25.0977 5.07812Q20.0195 5.07812 17.4316 2.46582Q14.8438-0.146484 14.8438-5.22461L14.8438-65.332Q14.8438-70.4102 17.4316-72.998Q20.0195-75.5859 25.0977-75.5859L112.549-75.5859Q117.432-75.5859 120.117-72.998Q122.803-70.4102 122.803-65.332L122.803-5.22461Q122.803-0.146484 120.117 2.46582Q117.432 5.07812 112.549 5.07812Z"/>
   <path class="multicolor-0:systemRedColor hierarchical-1:primary SFSymbolsPreviewFF3B30" d="M57.0801-57.2754Q53.0762-57.2754 49.9268-55.4199Q46.7773-53.5645 44.9707-50.3662Q43.1641-47.168 43.1641-43.0664Q43.1641-38.7695 44.8486-34.7656Q46.5332-30.7617 49.292-27.1973Q52.0508-23.6328 55.3223-20.6055Q58.5938-17.5781 61.7432-15.2344Q64.8926-12.8906 67.334-11.3281Q67.7246-11.1328 68.1396-10.9375Q68.5547-10.7422 68.8477-10.7422Q69.1406-10.7422 69.5557-10.9131Q69.9707-11.084 70.3125-11.3281Q72.6074-13.0859 75.7324-15.4785Q78.8574-17.8711 82.1289-20.874Q85.4004-23.877 88.208-27.3926Q91.0156-30.9082 92.7734-34.8389Q94.5312-38.7695 94.5312-43.0664Q94.5312-47.168 92.7002-50.3662Q90.8691-53.5645 87.7197-55.4199Q84.5703-57.2754 80.5176-57.2754Q76.709-57.2754 73.584-55.127Q70.459-52.9785 68.7988-50.0488Q67.1875-52.9785 64.0869-55.127Q60.9863-57.2754 57.0801-57.2754Z"/>
  </g>
  <g id="Black-S" transform="matrix(1 0 0 1 2877.35 696)">
   <path class="multicolor-0:systemRedColor hierarchical-0:secondary SFSymbolsPreviewFF3B30" d="M25 2.92969L87.1094 2.92969Q94.2871 2.92969 98.3154-1.09863Q102.344-5.12695 102.344-12.3047L102.344-58.1055Q102.344-65.2832 98.3154-69.3115Q94.2871-73.3398 87.1094-73.3398L25-73.3398Q17.8223-73.3398 13.7939-69.3115Q9.76562-65.2832 9.76562-58.1055L9.76562-12.3047Q9.76562-5.12695 13.7939-1.09863Q17.8223 2.92969 25 2.92969ZM27.2461-11.2305Q25.5859-11.2305 24.7559-11.9873Q23.9258-12.7441 23.9258-14.5508L23.9258-55.8594Q23.9258-57.7148 24.7559-58.4473Q25.5859-59.1797 27.2461-59.1797L84.8633-59.1797Q86.5723-59.1797 87.3779-58.4473Q88.1836-57.7148 88.1836-55.8594L88.1836-14.5508Q88.1836-12.7441 87.3779-11.9873Q86.5723-11.2305 84.8633-11.2305Z"/>
   <path class="multicolor-0:systemRedColor hierarchical-1:primary SFSymbolsPreviewFF3B30" d="M47.7051-50.4883Q43.6035-50.4883 40.6006-47.4854Q37.5977-44.4824 37.5977-39.4043Q37.5977-35.7422 39.0869-32.5928Q40.5762-29.4434 42.8223-26.9043Q45.0684-24.3652 47.3877-22.5098Q49.707-20.6543 51.4404-19.6045Q53.1738-18.5547 53.6133-18.3105Q54.1504-18.0664 54.8096-17.749Q55.4688-17.4316 56.0547-17.4316Q56.6406-17.4316 57.2998-17.749Q57.959-18.0664 58.4961-18.3105Q58.9355-18.5059 60.6934-19.5801Q62.4512-20.6543 64.7705-22.5098Q67.0898-24.3652 69.3115-26.9043Q71.5332-29.4434 73.0225-32.5928Q74.5117-35.7422 74.5117-39.4043Q74.5117-44.4824 71.5088-47.4854Q68.5059-50.4883 64.4043-50.4883Q61.2793-50.4883 59.1797-48.9746Q57.0801-47.4609 56.0547-45.752Q55.0293-47.4609 52.9541-48.9746Q50.8789-50.4883 47.7051-50.4883Z"/>
  </g>
  <g id="Heavy-S" transform="matrix(1 0 0 1 2580.88 696)">
   <path class="multicolor-0:systemRedColor hierarchical-0:secondary SFSymbolsPreviewFF3B30" d="M24.3652 2.34375L87.3047 2.34375Q94.2871 2.34375 98.0713-1.46484Q101.855-5.27344 101.855-12.207L101.855-58.2031Q101.855-65.1367 98.0713-68.9453Q94.2871-72.7539 87.3047-72.7539L24.3652-72.7539Q17.3828-72.7539 13.5742-68.9453Q9.76562-65.1367 9.76562-58.2031L9.76562-12.207Q9.76562-5.27344 13.5742-1.46484Q17.3828 2.34375 24.3652 2.34375ZM26.0742-10.1562Q24.1699-10.1562 23.2178-11.0596Q22.2656-11.9629 22.2656-14.0137L22.2656-56.3965Q22.2656-58.4961 23.2178-59.375Q24.1699-60.2539 26.0742-60.2539L85.5469-60.2539Q87.5-60.2539 88.4521-59.375Q89.4043-58.4961 89.4043-56.3965L89.4043-14.0137Q89.4043-11.9629 88.4521-11.0596Q87.5-10.1562 85.5469-10.1562Z"/>
   <path class="multicolor-0:systemRedColor hierarchical-1:primary SFSymbolsPreviewFF3B30" d="M47.2656-50.8301Q42.9688-50.8301 39.9414-47.7539Q36.9141-44.6777 36.9141-39.5996Q36.9141-36.084 38.3057-33.0078Q39.6973-29.9316 41.8701-27.3682Q44.043-24.8047 46.3623-22.8271Q48.6816-20.8496 50.6348-19.5801Q52.5879-18.3105 53.4668-17.7734Q54.0039-17.5293 54.6631-17.1875Q55.3223-16.8457 55.8594-16.8457Q56.3965-16.8457 57.0312-17.1875Q57.666-17.5293 58.2031-17.7734Q59.082-18.3105 61.0352-19.5801Q62.9883-20.8496 65.332-22.8271Q67.6758-24.8047 69.7998-27.3682Q71.9238-29.9316 73.3398-33.0078Q74.7559-36.084 74.7559-39.5996Q74.7559-44.6777 71.7041-47.7539Q68.6523-50.8301 64.3555-50.8301Q61.2793-50.8301 59.1064-49.3164Q56.9336-47.8027 55.8105-45.8496Q54.6875-47.8027 52.5635-49.3164Q50.4395-50.8301 47.2656-50.8301Z"/>
  </g>
  <g id="Bold-S" transform="matrix(1 0 0 1 2284.41 696)">
   <path class="multicolor-0:systemRedColor hierarchical-0:secondary SFSymbolsPreviewFF3B30" d="M23.6328 1.66016L87.5 1.66016Q94.2383 1.66016 97.8027-1.9043Q101.367-5.46875 101.367-12.1094L101.367-58.3008Q101.367-64.9902 97.8027-68.5303Q94.2383-72.0703 87.5-72.0703L23.6328-72.0703Q16.9434-72.0703 13.3545-68.5303Q9.76562-64.9902 9.76562-58.3008L9.76562-12.1094Q9.76562-5.46875 13.3545-1.9043Q16.9434 1.66016 23.6328 1.66016ZM24.8047-8.98438Q22.6562-8.98438 21.5088-10.0586Q20.3613-11.1328 20.3613-13.4277L20.3613-57.0312Q20.3613-59.3262 21.5088-60.4004Q22.6562-61.4746 24.8047-61.4746L86.3281-61.4746Q88.5254-61.4746 89.6484-60.4004Q90.7715-59.3262 90.7715-57.0312L90.7715-13.4277Q90.7715-11.1328 89.6484-10.0586Q88.5254-8.98438 86.3281-8.98438Z"/>
   <path class="multicolor-0:systemRedColor hierarchical-1:primary SFSymbolsPreviewFF3B30" d="M46.875-51.2207Q42.334-51.2207 39.2578-48.0713Q36.1816-44.9219 36.1816-39.7949Q36.1816-36.5234 37.4756-33.5205Q38.7695-30.5176 40.8447-27.9297Q42.9199-25.3418 45.2637-23.2422Q47.6074-21.1426 49.7803-19.6045Q51.9531-18.0664 53.3691-17.1875Q53.9062-16.8945 54.541-16.5771Q55.1758-16.2598 55.6641-16.2598Q56.1523-16.2598 56.7627-16.5771Q57.373-16.8945 57.8613-17.1875Q59.3262-18.0664 61.4746-19.6045Q63.623-21.1426 65.9912-23.2422Q68.3594-25.3418 70.4102-27.9297Q72.4609-30.5176 73.7549-33.5205Q75.0488-36.5234 75.0488-39.7949Q75.0488-44.9219 71.9727-48.0713Q68.8965-51.2207 64.4043-51.2207Q61.2793-51.2207 59.0576-49.6826Q56.8359-48.1445 55.6152-45.9473Q54.3945-48.1445 52.1973-49.6826Q50-51.2207 46.875-51.2207Z"/>
  </g>
  <g id="Semibold-S" transform="matrix(1 0 0 1 1987.9 696)">
   <path class="multicolor-0:systemRedColor hierarchical-0:secondary SFSymbolsPreviewFF3B30" d="M23.0957 1.2207L87.6465 1.2207Q94.2383 1.2207 97.6074-2.17285Q100.977-5.56641 100.977-12.0605L100.977-58.3496Q100.977-64.8438 97.6074-68.2373Q94.2383-71.6309 87.6465-71.6309L23.0957-71.6309Q16.6016-71.6309 13.1836-68.2373Q9.76562-64.8438 9.76562-58.3496L9.76562-12.0605Q9.76562-5.56641 13.1836-2.17285Q16.6016 1.2207 23.0957 1.2207ZM23.877-8.1543Q21.5332-8.1543 20.2881-9.35059Q19.043-10.5469 19.043-12.9883L19.043-57.4219Q19.043-59.9121 20.2881-61.084Q21.5332-62.2559 23.877-62.2559L86.8652-62.2559Q89.209-62.2559 90.4541-61.084Q91.6992-59.9121 91.6992-57.4219L91.6992-12.9883Q91.6992-10.5469 90.4541-9.35059Q89.209-8.1543 86.8652-8.1543Z"/>
   <path class="multicolor-0:systemRedColor hierarchical-1:primary SFSymbolsPreviewFF3B30" d="M46.5332-51.5137Q41.8457-51.5137 38.7451-48.3154Q35.6445-45.1172 35.6445-39.9902Q35.6445-36.8164 36.8652-33.8867Q38.0859-30.957 40.1123-28.3447Q42.1387-25.7324 44.4824-23.5352Q46.8262-21.3379 49.1455-19.6289Q51.4648-17.9199 53.2715-16.7969Q53.8086-16.5039 54.4189-16.1865Q55.0293-15.8691 55.5176-15.8691Q55.957-15.8691 56.543-16.1865Q57.1289-16.5039 57.6172-16.7969Q59.4238-17.9199 61.7188-19.6289Q64.0137-21.3379 66.3818-23.5352Q68.75-25.7324 70.752-28.3447Q72.7539-30.957 73.9746-33.8867Q75.1953-36.8164 75.1953-39.9902Q75.1953-45.1172 72.0947-48.3154Q68.9941-51.5137 64.3555-51.5137Q61.2793-51.5137 59.0088-49.9756Q56.7383-48.4375 55.4199-46.0449Q54.1016-48.4375 51.8555-49.9756Q49.6094-51.5137 46.5332-51.5137Z"/>
  </g>
  <g id="Medium-S" transform="matrix(1 0 0 1 1691.33 696)">
   <path class="multicolor-0:systemRedColor hierarchical-0:secondary SFSymbolsPreviewFF3B30" d="M22.7051 0.830078L87.7441 0.830078Q94.1895 0.830078 97.4365-2.41699Q100.684-5.66406 100.684-11.9629L100.684-58.4473Q100.684-64.7461 97.4365-67.9932Q94.1895-71.2402 87.7441-71.2402L22.7051-71.2402Q16.3574-71.2402 13.0615-67.9932Q9.76562-64.7461 9.76562-58.4473L9.76562-11.9629Q9.76562-5.66406 13.0615-2.41699Q16.3574 0.830078 22.7051 0.830078ZM23.1934-7.51953Q20.752-7.51953 19.4092-8.81348Q18.0664-10.1074 18.0664-12.6465L18.0664-57.7637Q18.0664-60.3516 19.4092-61.6211Q20.752-62.8906 23.1934-62.8906L87.2559-62.8906Q89.7461-62.8906 91.0645-61.6211Q92.3828-60.3516 92.3828-57.7637L92.3828-12.6465Q92.3828-10.1074 91.0645-8.81348Q89.7461-7.51953 87.2559-7.51953Z"/>
   <path class="multicolor-0:systemRedColor hierarchical-1:primary SFSymbolsPreviewFF3B30" d="M46.2891-51.7578Q41.5039-51.7578 38.3789-48.4863Q35.2539-45.2148 35.2539-40.0879Q35.2539-37.0117 36.4258-34.1309Q37.5977-31.25 39.5508-28.6377Q41.5039-26.0254 43.8721-23.7549Q46.2402-21.4844 48.6816-19.6533Q51.123-17.8223 53.1738-16.4551Q53.7109-16.2109 54.3457-15.8691Q54.9805-15.5273 55.3711-15.5273Q55.8105-15.5273 56.3721-15.8691Q56.9336-16.2109 57.4219-16.4551Q59.5215-17.7734 61.9385-19.6289Q64.3555-21.4844 66.7236-23.7549Q69.0918-26.0254 71.0449-28.6377Q72.998-31.25 74.1699-34.1309Q75.3418-37.0117 75.3418-40.0879Q75.3418-45.2148 72.2168-48.4863Q69.0918-51.7578 64.3555-51.7578Q61.2793-51.7578 58.96-50.1953Q56.6406-48.6328 55.3223-46.1426Q53.9062-48.6328 51.6357-50.1953Q49.3652-51.7578 46.2891-51.7578Z"/>
  </g>
  <g id="Regular-S" transform="matrix(1 0 0 1 1394.79 696)">
   <path class="multicolor-0:systemRedColor hierarchical-0:secondary SFSymbolsPreviewFF3B30" d="M22.2168 0.390625L87.8906 0.390625Q94.1895 0.390625 97.2656-2.68555Q100.342-5.76172 100.342-11.9141L100.342-58.4961Q100.342-64.6484 97.2656-67.7246Q94.1895-70.8008 87.8906-70.8008L22.2168-70.8008Q16.0156-70.8008 12.8906-67.7246Q9.76562-64.6484 9.76562-58.4961L9.76562-11.9141Q9.76562-5.76172 12.8906-2.68555Q16.0156 0.390625 22.2168 0.390625ZM22.3145-6.68945Q19.6777-6.68945 18.2373-8.10547Q16.7969-9.52148 16.7969-12.2559L16.7969-58.1543Q16.7969-60.9375 18.2373-62.3291Q19.6777-63.7207 22.3145-63.7207L87.793-63.7207Q90.4297-63.7207 91.8701-62.3291Q93.3105-60.9375 93.3105-58.1543L93.3105-12.2559Q93.3105-9.52148 91.8701-8.10547Q90.4297-6.68945 87.793-6.68945Z"/>
   <path class="multicolor-0:systemRedColor hierarchical-1:primary SFSymbolsPreviewFF3B30" d="M45.9473-52.002Q41.0156-52.002 37.8662-48.6816Q34.7168-45.3613 34.7168-40.2344Q34.7168-37.3047 35.8154-34.4727Q36.9141-31.6406 38.8184-29.0039Q40.7227-26.3672 43.0908-23.999Q45.459-21.6309 48.0469-19.6289Q50.6348-17.627 53.0762-16.0645Q53.6133-15.7715 54.2236-15.4297Q54.834-15.0879 55.2246-15.0879Q55.6152-15.0879 56.1523-15.4297Q56.6895-15.7715 57.1777-16.0645Q59.6191-17.627 62.1826-19.6289Q64.7461-21.6309 67.1387-23.999Q69.5312-26.3672 71.4111-29.0039Q73.291-31.6406 74.3896-34.4727Q75.4883-37.3047 75.4883-40.2344Q75.4883-45.3613 72.3389-48.6816Q69.1895-52.002 64.3066-52.002Q61.2305-52.002 58.8867-50.4395Q56.543-48.877 55.127-46.1914Q53.6621-48.877 51.3428-50.4395Q49.0234-52.002 45.9473-52.002Z"/>
  </g>
  <g id="Light-S" transform="matrix(1 0 0 1 1098.42 696)">
   <path class="multicolor-0:systemRedColor hierarchical-0:secondary SFSymbolsPreviewFF3B30" d="M21.3867-0.292969L87.9883-0.292969Q93.8477-0.292969 96.7529-3.19824Q99.6582-6.10352 99.6582-11.8164L99.6582-58.5938Q99.6582-64.3066 96.7529-67.2363Q93.8477-70.166 87.9883-70.166L21.3867-70.166Q15.625-70.166 12.6953-67.2607Q9.76562-64.3555 9.76562-58.5938L9.76562-11.8164Q9.76562-6.10352 12.6953-3.19824Q15.625-0.292969 21.3867-0.292969ZM21.4844-5.76172Q18.457-5.76172 16.8213-7.37305Q15.1855-8.98438 15.1855-12.1094L15.1855-58.3496Q15.1855-61.5234 16.8213-63.1104Q18.457-64.6973 21.4844-64.6973L87.8906-64.6973Q90.918-64.6973 92.5781-63.1104Q94.2383-61.5234 94.2383-58.3496L94.2383-12.1094Q94.2383-8.98438 92.5781-7.37305Q90.918-5.76172 87.8906-5.76172Z"/>
   <path class="multicolor-0:systemRedColor hierarchical-1:primary SFSymbolsPreviewFF3B30" d="M45.5566-52.1484Q40.6738-52.1484 37.5488-48.877Q34.4238-45.6055 34.4238-40.625Q34.4238-37.5488 35.5957-34.6191Q36.7676-31.6895 38.7451-29.0039Q40.7227-26.3184 43.1641-23.9502Q45.6055-21.582 48.1445-19.6289Q50.6836-17.6758 52.9785-16.2109Q53.418-15.9668 53.9307-15.6738Q54.4434-15.3809 54.834-15.3809Q55.127-15.3809 55.6152-15.6738Q56.1035-15.9668 56.4941-16.2109Q58.7402-17.7246 61.2793-19.6777Q63.8184-21.6309 66.2598-23.999Q68.7012-26.3672 70.6787-29.0527Q72.6562-31.7383 73.8525-34.6436Q75.0488-37.5488 75.0488-40.625Q75.0488-45.6055 71.8994-48.877Q68.75-52.1484 63.916-52.1484Q60.8398-52.1484 58.4717-50.5615Q56.1035-48.9746 54.7363-46.3867Q53.3203-48.9746 50.9766-50.5615Q48.6328-52.1484 45.5566-52.1484Z"/>
  </g>
  <g id="Thin-S" transform="matrix(1 0 0 1 802.174 696)">
   <path class="multicolor-0:systemRedColor hierarchical-0:secondary SFSymbolsPreviewFF3B30" d="M20.3125-1.17188L88.1836-1.17188Q93.4082-1.17188 96.0693-3.88184Q98.7305-6.5918 98.7305-11.7188L98.7305-58.7891Q98.7305-63.916 96.0693-66.6016Q93.4082-69.2871 88.1836-69.2871L20.3125-69.2871Q15.0879-69.2871 12.4268-66.626Q9.76562-63.9648 9.76562-58.7891L9.76562-11.7188Q9.76562-6.49414 12.4268-3.83301Q15.0879-1.17188 20.3125-1.17188ZM20.4102-4.49219Q16.7969-4.49219 14.9414-6.34766Q13.0859-8.20312 13.0859-11.8652L13.0859-58.5938Q13.0859-62.2559 14.9414-64.1113Q16.7969-65.9668 20.4102-65.9668L88.0859-65.9668Q91.6016-65.9668 93.5059-64.1113Q95.4102-62.2559 95.4102-58.5938L95.4102-11.8652Q95.4102-8.20312 93.5059-6.34766Q91.6016-4.49219 88.0859-4.49219Z"/>
   <path class="multicolor-0:systemRedColor hierarchical-1:primary SFSymbolsPreviewFF3B30" d="M45.1172-52.3438Q40.332-52.3438 37.207-49.1211Q34.082-45.8984 34.082-41.0156Q34.082-37.793 35.3516-34.7168Q36.6211-31.6406 38.6963-28.9062Q40.7715-26.1719 43.2861-23.8037Q45.8008-21.4355 48.3154-19.5557Q50.8301-17.6758 52.8809-16.3574Q53.2227-16.1133 53.6133-15.918Q54.0039-15.7227 54.2969-15.7227Q54.541-15.7227 54.9561-15.918Q55.3711-16.1133 55.6641-16.3574Q57.666-17.7734 60.1562-19.7021Q62.6465-21.6309 65.1611-23.9746Q67.6758-26.3184 69.7754-29.0283Q71.875-31.7383 73.1689-34.7656Q74.4629-37.793 74.4629-41.0156Q74.4629-45.8984 71.3623-49.1211Q68.2617-52.3438 63.4766-52.3438Q60.4004-52.3438 58.0078-50.6836Q55.6152-49.0234 54.2969-46.6309Q52.9785-49.0234 50.5615-50.6836Q48.1445-52.3438 45.1172-52.3438Z"/>
  </g>
  <g id="Ultralight-S" transform="matrix(1 0 0 1 505.707 696)">
   <path class="multicolor-0:systemRedColor hierarchical-0:secondary SFSymbolsPreviewFF3B30" d="M19.7754-1.66016L88.2324-1.66016Q93.2129-1.66016 95.7275-4.22363Q98.2422-6.78711 98.2422-11.6211L98.2422-58.8379Q98.2422-63.6719 95.7275-66.2598Q93.2129-68.8477 88.2324-68.8477L19.7754-68.8477Q14.8438-68.8477 12.3047-66.3086Q9.76562-63.7695 9.76562-58.8379L9.76562-11.6211Q9.76562-6.73828 12.3047-4.19922Q14.8438-1.66016 19.7754-1.66016ZM19.873-3.85742Q15.9668-3.85742 13.9648-5.85938Q11.9629-7.86133 11.9629-11.7676L11.9629-58.7402Q11.9629-62.6465 13.9648-64.6484Q15.9668-66.6504 19.873-66.6504L88.1348-66.6504Q91.9434-66.6504 93.9941-64.6484Q96.0449-62.6465 96.0449-58.7402L96.0449-11.7676Q96.0449-7.86133 93.9941-5.85938Q91.9434-3.85742 88.1348-3.85742Z"/>
   <path class="multicolor-0:systemRedColor hierarchical-1:primary SFSymbolsPreviewFF3B30" d="M44.8242-52.4414Q40.0879-52.4414 36.9873-49.2676Q33.8867-46.0938 33.8867-41.3086Q33.8867-37.9395 35.2051-34.8145Q36.5234-31.6895 38.6719-28.9062Q40.8203-26.123 43.3594-23.7549Q45.8984-21.3867 48.3643-19.5557Q50.8301-17.7246 52.7832-16.5039Q53.125-16.2598 53.4424-16.1133Q53.7598-15.9668 54.0527-15.9668Q54.248-15.9668 54.5898-16.1133Q54.9316-16.2598 55.2246-16.5039Q57.0801-17.8711 59.5459-19.751Q62.0117-21.6309 64.5508-23.9746Q67.0898-26.3184 69.2871-29.0771Q71.4844-31.8359 72.8271-34.8877Q74.1699-37.9395 74.1699-41.3086Q74.1699-46.0938 71.0693-49.2676Q67.9688-52.4414 63.1836-52.4414Q60.1562-52.4414 57.7393-50.7812Q55.3223-49.1211 54.0039-46.7773Q52.7344-49.1211 50.293-50.7812Q47.8516-52.4414 44.8242-52.4414Z"/>
  </g>
 </g>
</svg>
